HIERARCHY
ROOT hip
{
  OFFSET 0.0 0.0 0.0
  CHANNELS 6 Xposition Yposition Zposition Zrotation Yrotation Xrotation
  JOINT torso
  {
    OFFSET 0.0 0.0 0.0
    CHANNELS 3 Zrotation Xrotation Yrotation
    JOINT neck
    {
      OFFSET -31.42098999999993 328.8025209999999 74.3554680000002
      CHANNELS 3 Zrotation Xrotation Yrotation
      JOINT head
      {
        OFFSET 3.3519900000001144 303.81732099999994 206.53942900000015
        CHANNELS 3 Zrotation Xrotation Yrotation
        End Site
        {
          OFFSET 0.0 0.0 0.0
        }
      }
    }
    JOINT left_collar
    {
      OFFSET -31.42098999999993 328.8025209999999 74.3554680000002
      CHANNELS 3 Zrotation Xrotation Yrotation
      JOINT left_upper_arm
      {
        OFFSET -124.490479 -8.162841999999841 8.226441000000023
        CHANNELS 3 Zrotation Xrotation Yrotation
        JOINT left_forearm
        {
          OFFSET -253.595764 -1.5758060000000569 105.0729980000001
          CHANNELS 3 Zrotation Xrotation Yrotation
          JOINT left_hand
          {
            OFFSET -269.48803699999996 0.1478270000000066 -55.346191999999974
            CHANNELS 3 Zrotation Xrotation Yrotation
            End Site
            {
              OFFSET 0.0 0.0 0.0
            }
          }
        }
      }
    }
    JOINT right_collar
    {
      OFFSET -31.42098999999993 328.8025209999999 74.3554680000002
      CHANNELS 3 Zrotation Xrotation Yrotation
      JOINT right_upper_arm
      {
        OFFSET 162.02484099999998 0.46441600000002836 2.2303470000001653
        CHANNELS 3 Zrotation Xrotation Yrotation
        JOINT right_forearm
        {
          OFFSET 240.01246700000004 -25.835875999999985 121.34179699999959
          CHANNELS 3 Zrotation Xrotation Yrotation
          JOINT right_hand
          {
            OFFSET 252.48539699999992 18.910399999999868 -67.53466800000001
            CHANNELS 3 Zrotation Xrotation Yrotation
            End Site
            {
              OFFSET 0.0 0.0 0.0
            }
          }
        }
      }
    }
  }
}
MOTION
Frames: 6
Frame Time: 0.01
-257.5443429200379 213.69440268354643 1448.3766745675148 -0.7319825362937348 0.7798497142974721 -3.759922022962963 0.10268074363600087 -2.0253659959000085 -0.2177511949319105 -2.961106291087652 -3.0835764325125927 2.089328598014666 0.0 0.0 0.0 6.126515740219022 -0.7095158538291252 9.351501007736166 44.054143228506376 10.190432838369667 19.936019560422356 46.0689675751498 -5.419678780487604 -10.517992623057456 0.0 0.0 0.0 1.6544317783008946 -0.1529698477826519 7.504430129703279 -38.38436526633495 6.718161706088096 -27.65738160023072 -63.62396928971442 -9.611997446972595 15.628529818658079 0.0 0.0 0.0
-257.589685239811 213.66800981322083 1448.3438024934694 -0.7246093309297287 0.759416957498656 -3.752618071239475 0.1070882341479673 -2.0193581110487053 -0.21824734364477494 -2.958354579814311 -3.085024271988446 2.087451921616177 0.0 0.0 0.0 6.128196525248683 -0.7130933668377067 9.381272693370976 44.03734835403063 10.201373641695442 19.900309849158223 46.07026821571712 -5.421414531035676 -10.514342556086131 0.0 0.0 0.0 1.6036779454536123 -0.14868519386998 7.489540663360138 -38.344355515670216 6.716130470494828 -27.638517984401652 -63.6165258568389 -9.602933014247455 15.6434131997088 0.0 0.0 0.0
-257.63490544128956 213.64183040013552 1448.3083666025302 -0.7176152628571572 0.7396008574541467 -3.7464415290043434 0.11163534806762697 -2.01342051289859 -0.21878370074684272 -2.955795028616894 -3.087410815988007 2.0857312591276753 0.0 0.0 0.0 6.129717377555582 -0.7167560875468446 9.411773469396714 44.020492325121104 10.212000596511512 19.865273096476148 46.07192009105959 -5.423406900696803 -10.510201736821534 0.0 0.0 0.0 1.5542599942146955 -0.14454796846286416 7.476363679241229 -38.304845854265665 6.713649428781432 -27.620872420148846 -63.60957844810573 -9.594377556166581 15.65748860787187 0.0 0.0 0.0
-257.6796466412981 213.61604598780542 1448.2690504414197 -0.711084454865553 0.7206121237426055 -3.7417069888225187 0.11626502875542216 -2.0075638077800617 -0.21934741153966317 -2.9531587536130957 -3.0910389706183516 2.0839870681422528 0.0 0.0 0.0 6.131067281784453 -0.7204915051464331 9.442900833430734 44.003638072772965 10.222096267694253 19.831456559677832 46.074005110239945 -5.42566691301717 -10.505569680712277 0.0 0.0 0.0 1.5069827055539438 -0.1406281402988024 7.465458715560002 -38.26637654906923 6.710632048873022 -27.604946032869087 -63.60337956999329 -9.58650402616409 15.670503668216895 0.0 0.0 0.0
-257.7235634889647 213.59081693127132 1448.2245006502562 -0.7050908073160077 0.7026516485300036 -3.7387266522445817 0.1209037020625805 -2.0017948759429367 -0.219921265554012 -2.9501387724905612 -3.0962140768334376 2.0820133637197533 0.0 0.0 0.0 6.132231533820079 -0.7242858228802601 9.474542230284303 43.98686083173483 10.231446953333181 19.799407089740313 46.076601046969465 -5.428211748059953 -10.500430355266998 0.0 0.0 0.0 1.4626179201673108 -0.1369918234251514 7.457371189375036 -38.229443068870374 6.706996795201856 -27.591205231699416 -63.59819214298644 -9.5794566149532 15.682262995680771 0.0 0.0 0.0
-257.76632631165046 213.56627775938856 1448.173366326032 -0.6996960550296075 0.6859064566603801 -3.7378029381773517 0.1254615270243415 -1.9961180649544419 -0.22048387445788226 -2.946394948484647 -3.1032344064942636 2.0795808983062125 0.0 0.0 0.0 6.133192242152799 -0.728124063878176 9.506575904988708 43.97024884693683 10.239848751164102 19.76965739831796 46.07977866333746 -5.431064828327505 -10.494751114229402 0.0 0.0 0.0 1.4218830414663832 -0.1336996810217296 7.452616992306315 -38.19447989096097 6.702670403965254 -27.580064824824806 -63.594283446118126 -9.573344388808492 15.692638541350819 0.0 0.0 0.0
